<svg width="21" height="15" viewBox="0 0 21 15" fill="none" xmlns="http://www.w3.org/2000/svg">
    <path d="M2 7.50005L1.09529 7.07402L0.89467 7.50005L1.09529 7.92608L2 7.50005ZM18.9981 7.50005L19.9028 7.92608L20.1034 7.50005L19.9028 7.07402L18.9981 7.50005ZM2.90471 7.92608C4.28556 4.99377 7.17861 3 10.499 3V1C6.34743 1 2.78129 3.49371 1.09529 7.07402L2.90471 7.92608ZM10.499 3C13.8195 3 16.7125 4.99377 18.0934 7.92608L19.9028 7.07402C18.2168 3.49371 14.6507 1 10.499 1V3ZM18.0934 7.07402C16.7125 10.0063 13.8195 12.0001 10.499 12.0001V14.0001C14.6507 14.0001 18.2168 11.5064 19.9028 7.92608L18.0934 7.07402ZM10.499 12.0001C7.17861 12.0001 4.28556 10.0063 2.90471 7.07402L1.09529 7.92608C2.78129 11.5064 6.34743 14.0001 10.499 14.0001V12.0001Z" fill="black"/>
    <path d="M4.00085 0.99939L16.9999 13.9999" stroke="black" stroke-width="2"/>
</svg>
