<svg width="21" height="13" viewBox="0 0 21 13" fill="none" xmlns="http://www.w3.org/2000/svg">
    <path d="M2 6.50005L1.09529 6.07402L0.89467 6.50005L1.09529 6.92608L2 6.50005ZM18.9981 6.50005L19.9028 6.92608L20.1034 6.50005L19.9028 6.07402L18.9981 6.50005ZM2.90471 6.92608C4.28556 3.99377 7.17861 2 10.499 2V0C6.34743 0 2.78129 2.49371 1.09529 6.07402L2.90471 6.92608ZM10.499 2C13.8195 2 16.7125 3.99377 18.0934 6.92608L19.9028 6.07402C18.2168 2.49371 14.6507 0 10.499 0V2ZM18.0934 6.07402C16.7125 9.00634 13.8195 11.0001 10.499 11.0001V13.0001C14.6507 13.0001 18.2168 10.5064 19.9028 6.92608L18.0934 6.07402ZM10.499 11.0001C7.17861 11.0001 4.28556 9.00634 2.90471 6.07402L1.09529 6.92608C2.78129 10.5064 6.34743 13.0001 10.499 13.0001V11.0001Z" fill="black"/>
    <circle cx="10.502" cy="6.5" r="2.5" stroke="black" stroke-width="2"/>
</svg>
